<?xml version="1.0" standalone="no"?>
<!DOCTYPE svg PUBLIC "-//W3C//DTD SVG 20010904//EN"
 "http://www.w3.org/TR/2001/REC-SVG-20010904/DTD/svg10.dtd">
<svg version="1.0" xmlns="http://www.w3.org/2000/svg"
 width="1024.000000pt" height="1024.000000pt" viewBox="0 0 1024.000000 1024.000000"
 preserveAspectRatio="xMidYMid meet">

<g transform="translate(0.000000,1024.000000) scale(0.100000,-0.100000)"
fill="#000000" stroke="none">
<path d="M5 5120 c0 -2819 1 -3972 2 -2562 2 1409 2 3715 0 5125 -1 1409 -2
256 -2 -2563z"/>
<path d="M6210 9740 c-90 -11 -367 -32 -430 -33 -25 -1 -83 4 -130 11 -128 18
-247 3 -342 -45 -26 -12 -76 -52 -112 -87 -44 -44 -90 -77 -147 -106 -46 -23
-111 -61 -144 -84 -33 -24 -103 -59 -155 -80 -52 -21 -124 -55 -160 -76 -36
-20 -99 -54 -140 -73 -157 -76 -330 -187 -386 -250 -69 -78 -168 -219 -211
-301 -110 -213 -163 -332 -191 -432 -42 -147 -72 -269 -72 -288 0 -9 -22 -62
-49 -119 -27 -56 -55 -126 -61 -156 -16 -69 -7 -244 16 -326 11 -37 18 -97 18
-157 1 -77 4 -98 15 -98 10 0 12 -9 7 -39 -10 -62 29 -262 54 -283 21 -17 21
-19 9 -275 -19 -434 -21 -398 30 -478 25 -39 57 -83 71 -100 15 -16 45 -57 67
-90 22 -33 60 -89 84 -125 27 -39 45 -78 47 -99 3 -42 15 -64 67 -126 46 -55
137 -180 232 -320 34 -49 77 -104 95 -121 18 -17 65 -78 103 -135 39 -57 87
-123 108 -147 20 -24 37 -48 37 -53 0 -6 25 -37 56 -69 l55 -58 -36 8 c-19 4
-44 6 -55 3 -11 -3 -43 7 -72 21 -28 14 -62 26 -73 26 -12 0 -48 9 -81 20 -72
25 -234 54 -414 75 -74 9 -145 18 -157 21 -27 7 -63 49 -63 73 0 28 -47 87
-95 119 -39 26 -58 31 -138 37 -176 13 -361 -58 -415 -160 -11 -22 -15 -54
-14 -117 1 -49 -4 -114 -13 -150 -9 -37 -18 -138 -21 -248 -6 -180 -5 -187 20
-265 30 -94 83 -188 145 -257 l44 -50 -12 -103 c-19 -169 -31 -404 -21 -431 6
-16 20 -27 39 -30 25 -5 29 -12 34 -47 3 -22 15 -53 26 -68 25 -33 26 -60 6
-99 -11 -21 -13 -43 -9 -72 10 -63 23 -82 24 -32 0 26 8 51 20 67 26 32 18 94
-17 145 -26 40 -30 99 -9 140 10 19 30 33 63 44 47 16 133 30 133 22 0 -2 -25
-20 -55 -39 -30 -19 -58 -43 -63 -53 -8 -15 2 -154 24 -334 5 -37 3 -48 -8
-48 -8 0 -23 -6 -33 -14 -18 -13 -18 -15 -2 -39 18 -29 23 -67 7 -67 -5 0 -13
16 -19 35 -26 94 -58 128 -46 49 8 -53 24 -94 37 -94 5 0 5 -8 0 -17 -34 -66
-12 -113 53 -113 84 0 104 101 25 128 -24 9 -30 17 -30 41 0 16 -3 36 -6 45
-4 10 -1 16 8 16 8 0 23 9 33 20 15 17 17 31 11 105 -4 47 -13 115 -21 152 -8
38 -15 70 -15 73 0 3 51 6 113 6 88 1 125 6 172 23 33 13 79 29 102 38 23 8
44 21 47 29 3 8 9 56 12 107 6 89 5 97 -35 223 -23 72 -57 156 -75 187 -19 32
-30 57 -25 57 5 0 28 17 52 39 23 21 60 44 82 51 48 16 72 30 150 91 33 25 69
49 81 53 14 4 63 -13 155 -55 74 -34 184 -83 244 -110 61 -27 148 -69 195 -93
81 -42 199 -83 266 -93 27 -4 36 0 55 26 26 35 40 34 99 -5 21 -15 49 -24 72
-24 21 0 38 -4 38 -9 0 -5 12 -23 26 -40 22 -27 32 -31 73 -31 27 0 63 5 81
11 30 11 34 9 57 -17 16 -19 23 -37 20 -52 -4 -19 2 -27 27 -37 30 -13 31 -13
36 13 3 15 13 28 23 30 14 3 17 -5 17 -52 0 -47 -8 -72 -46 -149 -61 -121
-104 -248 -104 -310 0 -43 -5 -55 -42 -99 -48 -58 -88 -78 -152 -78 -35 0 -48
-5 -56 -19 -16 -30 -12 -65 10 -89 l20 -21 -28 -16 c-65 -39 -123 -170 -130
-291 -4 -73 -2 -84 16 -102 l21 -21 -20 -25 c-11 -14 -29 -26 -39 -26 -10 0
-25 -7 -34 -15 -8 -9 -33 -15 -59 -15 -71 0 -77 -12 -139 -250 -53 -205 -54
-208 -29 -282 17 -51 19 -70 11 -98 -14 -49 -12 -156 4 -215 20 -77 62 -151
114 -203 26 -26 61 -65 77 -87 16 -22 50 -65 76 -95 25 -30 76 -98 113 -150
36 -52 79 -108 93 -123 55 -57 103 -46 173 39 34 41 50 53 65 49 11 -3 65 -10
120 -16 55 -6 170 -21 255 -34 85 -13 179 -26 209 -30 68 -8 73 -11 167 -90
72 -62 78 -65 127 -65 34 1 69 9 102 25 35 17 67 25 105 25 30 0 71 5 90 11
19 6 91 15 160 19 148 11 219 30 275 75 38 32 98 52 200 70 22 4 108 29 190
55 193 63 365 84 217 27 -23 -10 -53 -17 -66 -17 -28 0 -56 -29 -56 -58 0 -31
27 -52 69 -52 58 0 246 45 346 84 66 25 111 35 170 38 86 5 133 26 185 83 14
15 42 35 62 46 59 30 156 117 177 157 10 20 32 47 49 59 31 23 116 159 138
221 7 21 13 52 14 70 0 28 3 32 26 32 14 0 49 11 78 25 53 25 90 66 117 130 7
17 23 42 35 57 12 15 35 53 50 83 25 52 26 62 21 148 -7 112 -44 244 -98 347
-21 42 -39 79 -39 82 0 4 11 18 25 32 19 20 25 35 25 71 0 58 -16 89 -77 146
l-48 45 17 56 c27 89 65 271 95 448 l28 165 0 645 c0 621 1 646 19 680 28 50
34 206 12 324 -34 176 -96 295 -197 373 -56 44 -56 44 -62 109 -8 82 -23 113
-70 143 -32 21 -37 29 -37 64 0 52 -32 103 -76 119 -18 6 -34 15 -34 18 0 4
32 86 71 183 l70 177 9 188 c5 103 9 311 10 463 l0 277 29 95 c16 52 34 130
40 172 16 111 13 299 -5 375 -16 71 -96 230 -180 360 -281 434 -369 579 -422
692 -93 199 -190 326 -331 433 -127 95 -183 126 -321 173 -63 22 -146 55 -185
72 -38 18 -122 49 -185 70 -63 21 -146 52 -183 69 -73 34 -319 124 -402 147
-62 18 -285 25 -385 14z m-407 -197 l68 -26 -82 -44 c-186 -99 -318 -222 -418
-388 -57 -95 -85 -165 -65 -165 5 0 77 68 159 151 169 171 237 220 411 299
110 51 126 55 219 62 55 4 143 10 195 14 l95 6 99 -46 c55 -26 115 -60 133
-77 39 -33 54 -35 114 -13 56 20 180 44 226 44 42 0 375 -111 458 -153 84 -42
213 -123 256 -160 19 -18 47 -41 60 -52 14 -11 58 -59 98 -107 40 -49 77 -88
82 -88 17 0 79 -63 129 -130 68 -92 97 -166 114 -297 8 -59 17 -116 21 -125 4
-10 48 -44 98 -76 101 -65 107 -71 141 -133 12 -24 42 -76 65 -115 23 -39 58
-117 78 -175 31 -89 37 -120 41 -215 5 -128 -2 -160 -76 -319 -52 -112 -57
-149 -33 -285 19 -108 25 -421 11 -543 -19 -166 -70 -337 -144 -484 l-64 -128
-132 -120 c-72 -66 -150 -145 -173 -175 l-41 -54 -12 46 c-13 52 -53 130 -70
135 -7 2 -9 -8 -6 -27 3 -18 -11 -85 -34 -163 l-39 -132 -76 -85 c-103 -115
-335 -323 -499 -446 -41 -31 -88 -69 -104 -86 -45 -45 -203 -169 -286 -224
-41 -28 -133 -90 -205 -139 -312 -212 -359 -239 -505 -292 -129 -46 -168 -55
-212 -48 -39 7 -42 11 -178 205 -14 19 -36 51 -49 69 -14 19 -26 42 -26 52 -2
25 -108 208 -197 339 -43 63 -123 169 -179 235 -55 66 -105 129 -110 140 -6
11 -32 34 -59 50 -85 51 -70 58 134 59 169 2 250 17 348 67 21 11 46 19 58 19
11 0 44 11 73 26 61 30 193 80 327 124 131 44 499 197 648 270 67 33 135 60
150 60 29 0 55 15 108 60 18 15 90 58 162 95 72 38 152 84 179 104 26 20 74
52 106 70 32 18 63 42 70 52 8 13 23 19 50 19 35 0 74 13 87 29 17 20 58 50
78 56 21 6 22 3 22 -42 0 -86 20 -213 44 -276 l23 -62 17 40 c30 69 46 166 46
281 0 102 -2 114 -25 147 -23 35 -23 38 -9 73 20 48 15 89 -11 89 -14 0 -28
-15 -46 -54 -22 -44 -33 -56 -65 -67 -22 -8 -41 -14 -43 -14 -2 0 13 18 32 40
49 54 90 137 90 183 0 28 -8 46 -28 67 l-27 28 22 22 c12 12 19 28 16 37 -3 8
-6 18 -6 23 0 16 -146 100 -251 144 -58 24 -159 76 -225 116 -179 109 -252
150 -330 186 -39 17 -123 66 -188 108 -64 42 -131 83 -149 92 -17 9 -55 32
-83 50 -68 47 -158 56 -255 26 -101 -31 -304 -70 -404 -77 -87 -7 -96 -5 -213
33 -88 29 -122 36 -122 27 0 -8 9 -17 20 -20 11 -3 20 -14 20 -23 1 -26 20
-45 80 -79 69 -39 228 -83 300 -83 59 0 256 38 357 69 l62 19 138 -69 c80 -40
161 -88 190 -114 29 -25 101 -72 160 -104 116 -62 191 -105 348 -196 54 -32
122 -68 150 -80 152 -68 248 -105 274 -105 22 0 38 -10 60 -37 56 -68 37 -119
-104 -284 -44 -51 -83 -101 -87 -111 -9 -23 -48 -38 -99 -38 -37 0 -40 2 -33
23 13 35 5 91 -13 105 -24 18 -81 32 -129 32 -31 0 -60 -12 -125 -51 -46 -28
-106 -62 -134 -76 -27 -14 -95 -56 -150 -93 -166 -111 -260 -168 -347 -209
-235 -110 -282 -131 -291 -131 -6 0 -47 -13 -91 -29 -150 -53 -380 -119 -511
-147 -206 -42 -235 -47 -521 -81 l-40 -5 -13 64 c-7 34 -30 162 -51 283 -21
121 -44 242 -52 270 -14 52 -39 71 -53 38 -12 -27 -18 -435 -8 -541 5 -51 5
-95 1 -98 -11 -7 -173 32 -238 58 -47 18 -193 108 -247 152 -10 8 -54 42 -98
75 -44 33 -98 76 -120 96 -49 45 -73 55 -131 55 -42 0 -44 -2 -44 -28 0 -15 5
-33 10 -38 16 -16 25 -110 11 -118 -19 -12 -67 45 -127 149 l-58 100 -9 220
c-13 324 -13 380 2 490 l14 100 56 43 c139 107 266 243 312 334 12 24 22 44
24 45 8 11 166 -67 299 -147 21 -13 54 -26 72 -29 28 -5 45 -21 101 -96 72
-94 140 -155 176 -155 21 0 155 83 272 169 33 24 97 61 142 83 84 40 138 85
154 127 15 38 -2 46 -63 32 -79 -17 -219 -83 -295 -137 -38 -27 -101 -71 -142
-97 l-74 -48 -39 38 c-22 21 -71 75 -110 121 -39 45 -77 82 -85 82 -8 0 -62
27 -120 60 -106 61 -206 105 -276 120 -32 6 -44 3 -73 -16 -19 -13 -41 -24
-49 -24 -18 0 -29 -17 -13 -22 37 -13 -172 -256 -297 -346 -22 -16 -54 -45
-72 -65 -18 -20 -34 -37 -35 -37 -2 0 -4 17 -5 38 -5 79 -15 142 -24 147 -21
13 -7 33 28 40 51 9 84 28 185 102 115 85 158 143 173 230 3 22 16 49 27 60
19 17 20 17 37 -3 42 -52 74 -59 256 -58 163 0 172 1 228 27 32 15 63 27 70
27 7 0 39 25 72 56 77 71 173 144 190 144 7 0 35 43 63 96 l49 97 34 -49 c48
-70 147 -166 217 -212 34 -22 108 -55 164 -73 95 -31 112 -34 228 -33 154 0
206 16 458 140 96 47 192 92 214 100 l41 14 34 -40 c38 -44 246 -207 350 -273
37 -24 104 -63 148 -87 44 -23 105 -58 137 -77 31 -18 105 -51 165 -73 59 -22
124 -49 144 -60 20 -11 51 -20 67 -20 17 0 66 -11 109 -25 43 -14 103 -28 133
-31 57 -6 116 8 105 26 -3 5 -38 19 -78 31 -356 104 -652 256 -929 475 -46 37
-110 85 -143 107 -33 22 -90 68 -126 103 -109 104 -143 102 -401 -26 -100 -50
-221 -105 -267 -121 -81 -28 -90 -30 -195 -24 -61 4 -134 13 -163 21 -28 8
-61 14 -72 14 -12 0 -21 5 -21 10 0 6 -44 39 -98 73 -105 68 -212 175 -212
212 0 12 -13 34 -30 50 -27 26 -30 27 -36 9 -4 -10 -20 -34 -35 -52 -16 -18
-50 -69 -75 -113 -64 -110 -138 -188 -221 -232 -100 -52 -170 -69 -256 -64
-166 12 -274 25 -295 36 -13 7 -46 11 -74 9 l-52 -3 -51 -90 c-62 -108 -129
-179 -212 -222 l-61 -33 -6 31 c-11 55 -7 220 9 352 12 103 23 149 56 235 43
112 70 190 113 331 29 91 30 94 101 246 32 71 61 116 99 155 28 30 73 80 99
111 49 59 103 99 222 165 96 53 242 123 290 140 21 8 90 41 151 74 62 33 115
60 118 60 3 0 6 -32 6 -70 0 -46 10 -110 29 -183 23 -88 51 -245 51 -287 0 -4
9 -16 20 -28 30 -31 56 -28 76 10 14 27 15 47 8 128 -18 219 -2 339 68 489 95
205 111 235 154 276 45 43 61 49 264 105 51 14 155 2 233 -27z m-1523 -4115
c85 -42 178 -86 207 -98 29 -13 54 -29 57 -36 3 -8 10 -14 17 -14 6 0 36 -15
67 -34 52 -30 178 -78 242 -91 56 -11 224 -168 282 -265 18 -30 73 -108 123
-173 49 -65 131 -181 180 -257 50 -76 99 -149 111 -162 20 -23 76 -118 69
-118 -2 0 -19 9 -37 19 -18 11 -51 24 -74 30 -22 6 -73 27 -113 46 -41 20
-107 47 -147 61 -41 13 -105 44 -142 68 -37 24 -91 56 -121 71 -177 89 -347
246 -416 385 -29 59 -117 172 -202 260 -107 111 -192 212 -266 319 -43 60 -77
112 -77 116 0 3 19 -7 43 -23 23 -16 112 -63 197 -104z m4262 -36 c31 -10 89
-41 129 -68 197 -134 252 -229 278 -481 5 -49 6 -104 3 -122 -7 -30 -9 -32
-21 -17 -7 9 -18 16 -24 16 -6 0 -21 9 -33 21 -23 21 -44 19 -44 -6 0 -9 -25
0 -76 26 -85 44 -144 52 -144 20 0 -15 27 -35 98 -75 101 -58 132 -67 132 -41
0 26 17 16 34 -19 18 -38 34 -176 20 -176 -5 0 -18 17 -29 37 -11 20 -45 55
-77 78 -50 37 -64 43 -128 49 -49 4 -77 3 -86 -5 -21 -17 -7 -29 35 -29 52 0
113 -46 159 -120 28 -44 44 -60 66 -64 16 -4 34 -2 40 4 17 17 26 11 17 -12
-17 -46 -20 -145 -8 -238 10 -75 10 -110 1 -165 -6 -38 -17 -103 -24 -143 -12
-73 -43 -132 -54 -102 -3 8 -7 35 -9 60 -10 96 -48 267 -71 310 -32 63 -136
139 -256 189 -172 71 -422 81 -546 21 -73 -35 -139 -90 -196 -161 -35 -44 -42
-49 -54 -37 -13 12 -11 28 10 119 14 57 37 174 52 259 14 85 37 188 50 228 31
94 31 99 -10 54 -32 -34 -36 -36 -51 -21 -37 36 -8 121 67 202 18 19 78 92
133 162 135 172 190 212 365 260 68 18 172 13 252 -13z m-846 -430 c-26 -42
-46 -60 -46 -43 0 6 -8 8 -17 5 -10 -3 5 14 32 39 28 25 51 44 53 42 2 -2 -8
-21 -22 -43z m-4117 -138 c45 -30 52 -41 40 -71 -7 -20 -11 -21 -46 -11 -47
13 -118 5 -141 -15 -10 -9 -36 -20 -60 -25 -57 -13 -112 -56 -112 -88 0 -13
-5 -24 -10 -24 -6 0 -31 -19 -55 -41 -75 -70 -53 -116 61 -124 59 -5 122 -21
137 -35 13 -11 -33 -40 -63 -40 -27 0 -116 -50 -137 -78 -16 -19 -17 -68 -3
-77 6 -4 22 -24 36 -46 23 -38 26 -39 79 -39 30 0 85 5 122 12 42 7 98 8 147
4 69 -7 82 -12 114 -40 l35 -33 -12 -49 c-22 -90 -63 -172 -94 -185 -34 -15
-51 -52 -37 -80 6 -10 15 -19 20 -19 5 0 27 -26 50 -57 43 -61 88 -183 92
-255 2 -24 6 -45 9 -48 3 -3 9 -28 13 -57 l7 -52 -53 27 c-48 24 -62 27 -153
26 -116 -1 -215 -24 -261 -59 -18 -14 -35 -25 -37 -25 -2 0 2 37 9 83 61 396
59 466 -16 497 -48 20 -105 93 -141 183 -33 80 -34 85 -33 227 0 80 6 188 13
240 6 52 13 138 14 190 l2 95 50 27 c49 27 161 72 200 81 11 3 55 5 98 6 68 1
82 -2 116 -25z m-64 -210 l40 -14 -42 4 c-25 2 -44 -1 -48 -8 -4 -8 -7 -8 -11
1 -8 18 -66 26 -108 15 -20 -6 -36 -7 -36 -2 0 21 148 25 205 4z m189 -4 c10
-3 -9 -6 -41 -6 -45 0 -57 3 -49 12 11 12 48 9 90 -6z m113 -36 c-3 -3 -12 -4
-19 -1 -8 3 -5 6 6 6 11 1 17 -2 13 -5z m-487 -324 c0 -5 -9 -10 -20 -10 -11
0 -20 5 -20 10 0 6 9 10 20 10 11 0 20 -4 20 -10z m4897 -25 c18 -6 20 -11 13
-29 -11 -30 -24 -297 -16 -324 8 -25 41 -30 49 -7 4 8 9 88 13 178 l7 165 51
-18 51 -17 -3 -94 c-2 -52 -9 -133 -17 -182 -8 -48 -15 -99 -15 -113 l0 -26
-79 3 c-66 3 -89 9 -145 39 -72 38 -375 259 -376 274 0 15 132 138 165 153 22
10 62 12 155 9 69 -2 135 -8 147 -11z m-2998 -59 c40 -21 52 -34 70 -76 12
-28 19 -55 15 -61 -4 -6 -1 -15 5 -19 18 -10 40 -105 40 -169 -1 -173 -2 -179
-31 -195 -14 -9 -29 -16 -32 -16 -16 0 -28 53 -32 152 -3 80 -11 130 -28 182
-13 39 -31 98 -40 131 -10 33 -19 68 -22 78 -7 22 -3 22 55 -7z m3330 -88 c66
-66 125 -169 119 -208 -2 -18 -26 -30 -122 -66 -108 -40 -176 -54 -176 -38 0
3 9 19 20 34 30 42 47 98 54 176 13 138 18 164 30 164 7 0 41 -28 75 -62z
m-3559 -136 c0 -41 -6 -74 -17 -95 -16 -30 -18 -31 -21 -9 -2 13 2 30 10 39
11 14 11 15 -1 8 -11 -6 -12 -3 -5 21 5 16 9 74 8 129 l-1 100 13 -65 c7 -36
13 -93 14 -128z m2145 66 c22 -120 25 -341 5 -379 -7 -13 -16 -58 -21 -100 -4
-47 -18 -102 -37 -145 -28 -66 -30 -69 -70 -76 -23 -4 -47 -10 -52 -13 -14 -8
-13 -48 1 -62 9 -9 4 -21 -19 -50 -16 -21 -40 -57 -52 -81 -12 -23 -25 -44
-29 -47 -12 -7 -81 15 -81 26 0 6 -4 7 -10 4 -18 -11 -11 31 14 87 17 39 43
72 90 113 46 41 66 66 66 83 0 13 5 33 12 45 15 27 15 30 28 144 11 106 14
241 6 263 -3 8 -10 51 -15 95 -6 44 -13 89 -16 100 -4 15 2 24 26 38 17 9 36
14 41 10 7 -3 8 -1 4 5 -7 12 11 17 43 13 7 -2 10 2 7 7 -6 10 8 20 29 21 6 1
19 -45 30 -101z m-268 -1 c-3 -8 1 -42 8 -75 13 -65 11 -80 -5 -37 -5 14 -16
25 -24 25 -9 0 -13 6 -10 14 4 11 0 13 -15 9 -15 -4 -21 -1 -21 11 0 15 -3 15
-36 1 -20 -8 -42 -15 -48 -14 -6 0 14 10 44 22 30 12 66 30 80 40 29 21 34 21
27 4z m-1341 -134 c4 -14 4 -55 0 -91 -3 -37 -9 -100 -12 -139 -6 -69 -8 -73
-31 -73 -22 0 -23 3 -17 38 14 69 10 295 -5 321 -13 23 -12 23 23 -4 20 -15
39 -39 42 -52z m1701 25 c-3 -8 -6 -5 -6 6 -1 11 2 17 5 13 3 -3 4 -12 1 -19z
m-878 -80 c0 -13 3 -62 7 -109 6 -74 4 -95 -15 -152 -13 -37 -24 -67 -27 -67
-2 0 -16 18 -30 40 -26 39 -27 44 -22 151 5 97 8 113 29 135 29 31 59 32 58 2z
m1671 -106 l115 -67 130 0 c72 0 174 4 229 9 59 6 97 5 94 0 -69 -144 -98
-206 -109 -236 -7 -21 -16 -38 -21 -38 -22 0 -124 32 -156 49 -20 11 -80 36
-132 56 -52 21 -106 42 -120 49 -21 10 -75 26 -237 72 -7 2 -13 14 -13 28 0
28 27 164 36 178 3 5 20 0 37 -12 18 -11 84 -51 147 -88z m-1583 36 c-3 -8 -6
-5 -6 6 -1 11 2 17 5 13 3 -3 4 -12 1 -19z m-7 -75 c-11 -17 -11 -17 -6 0 3
10 7 26 7 35 1 15 2 15 6 0 2 -10 -1 -25 -7 -35z m27 -95 c-3 -8 -6 -5 -6 6
-1 11 2 17 5 13 3 -3 4 -12 1 -19z m443 -112 l0 -55 -62 -47 c-56 -42 -60 -43
-33 -13 17 19 34 37 39 40 4 4 2 9 -5 12 -10 4 -11 8 -3 14 6 4 21 29 34 56
13 26 25 47 27 47 2 0 3 -24 3 -54z m935 -119 c50 -19 115 -42 145 -52 162
-52 223 -89 275 -168 43 -67 58 -160 29 -182 -30 -23 -39 -18 -62 31 -27 55
-118 154 -142 154 -10 0 -28 9 -42 19 -28 22 -238 106 -316 127 -84 22 -112
40 -112 72 0 57 45 80 100 51 19 -10 76 -34 125 -52z m-1520 23 c74 -17 157
-91 168 -148 19 -100 -118 -160 -211 -93 -54 40 -53 38 -79 162 -6 33 51 104
76 93 9 -3 30 -10 46 -14z m228 -35 c-3 -9 -8 -14 -10 -11 -3 3 -2 9 2 15 9
16 15 13 8 -4z m1034 -81 c3 -8 -4 -25 -17 -39 -21 -23 -22 -26 -7 -42 8 -10
20 -30 26 -44 7 -19 37 -41 108 -80 l98 -53 138 -1 138 0 23 -30 c13 -16 35
-52 50 -80 l27 -50 -28 -20 c-15 -11 -49 -41 -76 -68 l-47 -47 -53 52 c-57 57
-173 163 -277 253 -36 31 -88 79 -117 106 -28 27 -58 49 -67 49 -34 0 -28 30
13 70 45 43 58 48 68 24z m977 -69 c-14 -155 -35 -310 -45 -346 -16 -53 -71
-115 -128 -143 -25 -13 -86 -38 -136 -55 -49 -18 -100 -39 -112 -46 -35 -23
-39 2 -6 43 16 20 42 54 59 75 17 23 50 48 80 61 27 13 66 38 86 55 50 44 118
185 118 244 0 24 3 71 6 105 6 55 9 62 38 76 40 20 48 8 40 -69z m-4900 25
c56 -21 17 -41 -125 -64 -46 -8 -85 -12 -87 -11 -2 2 12 12 30 23 18 12 45 33
58 47 21 23 31 26 62 21 20 -3 48 -10 62 -16z m2430 -67 c-14 -32 -28 -78 -31
-103 -8 -59 -43 -86 -80 -62 -23 14 100 222 131 222 3 0 -6 -26 -20 -57z m103
-19 c-3 -3 -12 -4 -19 -1 -8 3 -5 6 6 6 11 1 17 -2 13 -5z m1209 -25 c57 -24
98 -56 264 -207 136 -124 196 -186 241 -246 25 -34 29 -48 29 -107 l0 -68 -37
-10 c-21 -5 -59 -13 -84 -16 l-46 -7 -12 78 c-7 48 -21 95 -37 121 -28 48
-121 141 -199 199 -27 20 -63 49 -80 64 -16 15 -55 44 -85 65 -30 20 -60 44
-67 52 -23 29 15 103 53 103 7 0 34 -9 60 -21z m-1156 -15 c0 -2 -9 0 -20 6
-11 6 -20 13 -20 16 0 2 9 0 20 -6 11 -6 20 -13 20 -16z m-95 -13 c-9 -29 21
-53 59 -47 24 5 27 4 11 -3 -19 -9 -18 -10 5 -11 23 -1 23 -2 -9 -15 -39 -17
-54 -19 -28 -4 17 10 15 12 -15 28 -27 13 -35 14 -41 3 -5 -7 -6 -20 -2 -29 6
-17 -10 -33 -32 -33 -7 0 -10 7 -6 16 5 13 7 13 14 2 7 -10 9 -8 9 7 0 21 30
105 37 105 2 0 2 -9 -2 -19z m45 -31 c0 -5 -4 -10 -9 -10 -6 0 -13 5 -16 10
-3 6 1 10 9 10 9 0 16 -4 16 -10z m263 -120 c46 -14 80 -33 115 -65 55 -50 69
-77 75 -150 4 -49 3 -51 -22 -49 -39 2 -41 3 -41 17 0 7 -15 35 -34 62 -47 71
-137 115 -232 115 -107 0 -253 -47 -285 -92 -36 -50 -22 -99 48 -170 67 -68
109 -84 237 -91 72 -5 81 -3 97 17 10 11 18 31 19 44 0 13 6 22 15 22 9 0 19
-10 24 -22 7 -19 1 -31 -36 -71 -45 -48 -47 -49 -116 -53 -70 -5 -156 7 -210
28 -30 12 -153 148 -168 186 -13 34 -11 89 5 120 24 46 78 89 121 97 22 3 60
18 83 32 78 45 203 54 305 23z m844 -13 c15 -12 47 -36 71 -51 24 -16 71 -61
105 -100 33 -39 82 -94 107 -121 35 -38 48 -61 54 -95 4 -24 10 -49 15 -55 27
-35 21 -45 -37 -60 -31 -9 -89 -27 -129 -41 -88 -30 -89 -30 -97 0 -3 14 -20
34 -36 46 l-30 21 -10 -26 c-5 -14 -10 -45 -10 -68 0 -23 -6 -49 -13 -58 -23
-30 -142 -114 -195 -136 -28 -13 -75 -33 -102 -45 -52 -22 -65 -19 -72 17 -2
10 -19 30 -38 43 -28 19 -45 23 -80 20 l-45 -5 3 42 c5 59 -16 79 -81 72 -39
-3 -54 -11 -78 -37 l-30 -33 -28 27 c-33 32 -36 32 -74 0 -32 -27 -47 -21 -47
20 0 21 9 29 105 93 39 25 109 83 156 129 l86 84 59 0 c34 0 68 -6 79 -14 11
-7 56 -21 100 -31 44 -9 101 -24 127 -33 45 -14 49 -18 65 -69 21 -68 14 -82
-78 -150 -130 -95 -162 -133 -110 -133 22 0 151 90 208 146 49 47 55 83 27
154 -9 22 -14 47 -10 55 7 19 -54 88 -92 104 -15 6 -58 14 -96 18 -40 5 -71
13 -73 20 -3 7 8 25 24 40 56 54 133 151 148 186 17 41 25 45 82 46 29 1 50
-6 70 -22z m-1567 -11 c0 -2 -13 -9 -29 -14 -23 -8 -31 -7 -35 4 -4 10 3 14
29 14 19 0 35 -2 35 -4z m1062 -36 c34 -32 24 -40 -26 -21 -18 8 -23 15 -19
30 3 12 7 21 9 21 1 0 18 -13 36 -30z m-1247 -10 c-27 -12 -43 -12 -25 0 8 5
22 9 30 9 10 0 8 -3 -5 -9z m367 -13 c-11 -12 -30 -43 -41 -67 -16 -36 -26
-46 -46 -48 -33 -2 -109 -42 -159 -81 -21 -17 -43 -31 -48 -31 -5 0 -22 -15
-39 -32 -40 -44 -38 -84 7 -167 60 -110 66 -114 152 -107 46 5 72 3 72 -3 0
-19 -52 -45 -104 -52 -70 -9 -122 17 -175 88 -77 105 -90 204 -35 281 27 38
131 114 214 157 27 14 199 80 219 84 3 1 -5 -9 -17 -22z m235 -179 c-3 -8 -6
-5 -6 6 -1 11 2 17 5 13 3 -3 4 -12 1 -19z m355 -30 c-9 -9 -15 -9 -24 1 -11
10 -10 11 5 6 10 -5 17 -2 17 6 0 7 3 9 7 6 4 -4 1 -13 -5 -19z m-1172 8 c0
-2 -21 -17 -47 -34 -27 -16 -65 -46 -86 -68 -37 -37 -38 -42 -33 -87 4 -35 1
-56 -11 -73 -9 -15 -13 -35 -10 -52 5 -25 2 -30 -31 -43 -20 -7 -39 -15 -42
-17 -13 -6 67 219 90 254 15 24 52 55 95 81 74 45 75 45 75 39z m1274 -57 c-6
-11 -24 -2 -24 11 0 5 7 7 15 4 8 -4 12 -10 9 -15z m-3193 1 c22 -13 25 -43 5
-59 -8 -7 -30 -11 -48 -9 -26 2 -34 8 -36 26 -7 44 34 66 79 42z m2315 -41
c19 -21 19 -21 -8 -8 -15 6 -25 16 -22 20 7 12 8 12 30 -12z m3146 -39 c20
-28 24 -40 14 -40 -17 0 -56 47 -56 66 0 24 14 15 42 -26z m-3489 -55 c49 -13
32 -34 -30 -37 -50 -3 -58 -6 -58 -23 1 -21 -18 -37 -47 -42 -15 -2 -16 0 -4
29 10 23 11 39 4 60 -9 26 -7 33 18 59 l28 29 31 -34 c17 -19 44 -38 58 -41z
m732 -55 c39 -16 63 -30 54 -30 -9 0 -16 -7 -16 -15 0 -8 4 -15 9 -15 5 0 6
-4 3 -10 -10 -16 -37 -11 -61 11 l-22 21 -21 -21 c-18 -18 -18 -22 -6 -35 13
-12 11 -15 -15 -24 -16 -6 -42 -7 -57 -3 l-28 8 38 12 c36 12 37 14 20 28 -17
14 -17 14 1 9 42 -14 64 42 33 82 -13 17 -11 16 68 -18z m2527 -18 c13 -5 15
-11 8 -22 -7 -10 -10 -11 -10 -2 0 6 -6 12 -14 12 -8 0 -18 5 -21 10 -7 11 11
12 37 2z m-1946 -144 c-4 -13 -9 -39 -12 -58 -6 -41 -34 -110 -44 -110 -4 0
-13 7 -20 15 -14 17 -43 19 -71 5 -27 -15 -24 -2 16 60 19 29 36 57 37 61 5
11 72 49 87 49 9 0 11 -7 7 -22z m-192 -14 c5 -17 0 -36 -14 -60 -25 -39 -35
-43 -43 -13 -4 16 -11 20 -26 16 -15 -4 -21 0 -21 12 0 21 25 46 60 60 36 14
37 14 44 -15z m336 -79 c29 -15 43 -55 20 -55 -7 0 -8 -13 -4 -37 5 -28 3 -39
-11 -49 -20 -15 -55 -2 -55 20 0 26 -28 40 -56 27 l-26 -12 27 48 c27 47 51
73 67 73 5 0 22 -7 38 -15z m-545 -51 c-13 -19 -37 -45 -52 -57 l-28 -21 25
30 c40 47 74 84 77 84 1 0 -8 -16 -22 -36z m84 -4 c-6 -16 -15 -30 -20 -30
-13 0 -11 13 7 38 21 30 25 28 13 -8z m-1412 -33 c8 -5 33 -58 76 -158 25 -59
77 -110 142 -140 68 -31 96 -57 119 -113 22 -52 21 -53 -21 -16 -43 39 -182
107 -232 116 -20 3 -43 8 -51 11 -8 4 -18 7 -22 7 -3 1 -10 4 -14 9 -4 4 -23
7 -43 7 -29 0 -42 -8 -83 -52 -47 -51 -48 -51 -48 -24 0 15 6 48 14 74 8 26
24 90 36 142 12 52 28 109 35 127 12 29 15 31 48 23 19 -4 39 -10 44 -13z
m1627 -23 c4 -10 1 -14 -6 -12 -15 5 -23 28 -10 28 5 0 13 -7 16 -16z m-230
-23 c3 -5 -10 -25 -29 -45 -33 -35 -35 -36 -45 -16 -12 22 0 54 22 63 21 9 46
8 52 -2z m401 -10 c0 -23 -23 -24 -35 -1 -10 19 -9 21 12 18 13 -2 23 -9 23
-17z m-325 -1 c-8 -5 -22 -9 -30 -9 -10 0 -8 3 5 9 27 12 43 12 25 0z m156
-40 c22 0 22 -1 8 -27 -7 -16 -14 -34 -14 -40 0 -15 -16 -17 -25 -3 -3 6 -17
10 -31 10 -20 0 -24 5 -24 28 0 15 3 37 6 49 l6 23 25 -20 c14 -11 36 -20 49
-20z m167 -32 c9 0 17 -5 17 -12 0 -20 -22 -36 -52 -36 -25 0 -28 4 -28 31 0
27 2 30 23 23 12 -4 30 -7 40 -6z m682 -37 c11 -5 31 -21 45 -37 30 -32 12
-24 -50 25 -55 43 -74 61 -40 38 14 -10 34 -21 45 -26z m-1290 -1 c3 -5 11 -7
18 -4 17 6 224 -121 385 -237 53 -38 78 -62 79 -78 2 -21 0 -20 -35 10 -20 18
-60 43 -90 57 -51 23 -64 25 -211 23 -86 0 -176 -4 -201 -7 -66 -10 -219 -87
-258 -131 -39 -45 -58 -35 -48 24 6 30 22 52 75 103 37 36 92 94 122 130 30
35 67 77 84 92 29 28 68 37 80 18z m393 -22 c27 -27 1 -106 -32 -95 -15 5 -20
62 -6 87 12 23 21 25 38 8z m200 -65 c2 -17 -4 -48 -12 -68 -14 -33 -18 -36
-32 -24 -13 10 -15 24 -10 63 8 70 48 91 54 29z m806 -2 c-2 -3 -12 3 -22 13
-16 17 -16 18 5 5 12 -7 20 -15 17 -18z m-2492 -166 c41 -19 90 -48 108 -65
17 -16 53 -44 79 -61 64 -41 91 -114 91 -242 0 -98 -3 -106 -54 -160 -20 -21
-39 -50 -42 -65 -3 -15 -8 -33 -10 -41 -13 -42 -157 51 -276 178 -132 141
-164 238 -114 347 55 120 73 144 110 144 18 0 67 -16 108 -35z m1200 -106
c138 -1 167 -10 220 -70 26 -30 54 -72 63 -94 9 -22 23 -53 31 -68 19 -38 17
-122 -4 -176 -15 -40 -25 -49 -92 -83 -41 -21 -108 -49 -150 -63 -87 -29 -105
-39 -96 -53 11 -18 98 -33 150 -27 28 4 78 7 111 8 50 2 68 8 110 36 28 19 62
45 78 59 l27 26 0 -45 c0 -39 -6 -52 -46 -99 -94 -110 -230 -248 -271 -275
l-42 -27 -80 66 c-71 60 -130 96 -253 157 -51 26 -108 95 -108 132 0 28 2 29
36 24 l35 -6 -28 34 c-15 18 -38 50 -51 70 -19 32 -21 39 -8 49 11 8 15 37 16
111 3 126 3 125 -15 125 -20 0 -19 5 13 70 23 46 36 60 82 84 63 34 157 57
182 44 9 -4 50 -8 90 -9z m1624 -84 c53 -30 100 -55 105 -55 4 0 12 -8 18 -17
5 -10 13 -16 18 -13 4 3 9 -5 11 -17 2 -13 8 -23 14 -23 5 0 7 -7 4 -16 -3 -8
-2 -13 3 -10 11 7 23 -22 14 -36 -3 -6 -1 -8 5 -4 6 3 13 2 17 -4 3 -5 2 -10
-3 -10 -14 0 -22 -38 -10 -42 16 -6 1 -41 -32 -78 -52 -58 -34 -117 50 -166
40 -24 38 -34 -8 -34 -35 0 -96 -15 -144 -35 -14 -5 -18 -2 -18 12 0 11 -14
40 -31 66 l-30 46 21 23 c43 45 62 124 48 196 -5 26 -10 53 -12 59 -1 7 -26
42 -55 78 -28 36 -49 70 -46 75 3 6 -1 7 -9 4 -9 -3 -16 -2 -16 3 0 5 -12 22
-28 39 -52 56 -60 71 -20 41 21 -15 81 -52 134 -82z m545 76 c-13 -10 -35 -18
-48 -18 -21 0 -22 1 -6 12 9 7 22 11 28 8 7 -2 18 3 25 12 7 8 16 13 19 10 3
-4 -5 -14 -18 -24z m-267 -51 c-7 -7 -19 -7 -35 -1 -23 9 -22 10 11 10 23 1
31 -2 24 -9z m186 0 c-8 -5 -19 -10 -25 -10 -5 0 -3 5 5 10 8 5 20 10 25 10 6
0 3 -5 -5 -10z m-584 -211 l44 -30 0 -63 c0 -75 -16 -101 -94 -151 -55 -35
-324 -145 -354 -145 -10 0 -47 -11 -82 -25 -35 -14 -65 -23 -67 -22 -6 6 68
100 132 167 34 36 74 83 89 106 15 23 48 56 74 74 26 19 73 58 105 87 65 59
70 59 153 2z m-2263 -28 c3 -14 2 -76 -2 -138 l-7 -111 -74 -99 c-116 -151
-127 -162 -154 -155 -13 4 -44 34 -70 68 -25 33 -71 84 -103 113 l-58 52 57
-25 c31 -13 81 -27 110 -31 l54 -7 75 70 c41 39 88 89 104 111 26 39 28 45 22
120 l-5 80 23 -11 c13 -6 25 -22 28 -37z m199 -67 c-2 -48 -1 -96 2 -108 3
-11 30 -50 60 -86 45 -53 56 -72 56 -101 l0 -37 -159 1 -159 1 21 30 c22 30
61 186 75 296 7 53 8 55 52 72 25 9 47 17 50 17 3 1 4 -38 2 -85z m2748 -48
c0 -3 -15 -14 -32 -26 l-33 -22 28 26 c27 25 37 31 37 22z m-82 -68 c-6 -16
-48 -43 -48 -30 0 13 28 42 42 42 5 0 8 -5 6 -12z m-1118 -19 c-6 -11 -48 -57
-93 -102 -45 -46 -107 -109 -137 -142 -65 -71 -103 -86 -280 -109 -64 -8 -124
-18 -135 -22 -18 -7 -19 -6 -5 12 8 10 57 62 108 114 51 52 95 104 98 116 4
15 21 26 62 39 31 9 71 24 87 33 30 15 254 78 288 81 15 1 16 -2 7 -20z m998
-74 c-3 -3 -9 2 -12 12 -6 14 -5 15 5 6 7 -7 10 -15 7 -18z"/>
<path d="M6524 9106 c-20 -14 -42 -64 -129 -291 -41 -106 -59 -139 -151 -275
-80 -120 -115 -198 -83 -188 40 12 259 319 276 386 3 14 30 78 59 141 50 108
54 113 54 76 0 -64 -62 -227 -115 -301 -26 -35 -55 -70 -66 -77 -10 -6 -19
-15 -19 -20 0 -10 40 11 68 36 l22 20 0 -26 c0 -60 55 -35 95 44 33 64 79 188
95 257 16 67 6 151 -24 194 -25 38 -52 45 -82 24z"/>
<path d="M4313 8748 c-65 -70 -152 -435 -153 -639 0 -85 11 -189 20 -189 4 0
10 28 13 63 24 242 54 412 88 503 12 30 22 54 24 52 2 -2 -10 -55 -26 -118
-31 -118 -51 -299 -32 -287 5 3 16 32 23 63 8 34 24 66 40 83 27 26 54 103 86
236 22 95 16 221 -11 241 -27 20 -48 17 -72 -8z"/>
<path d="M7590 8543 c-102 -113 -281 -291 -330 -328 -166 -127 -250 -225 -106
-125 33 24 52 33 42 21 -11 -12 -44 -35 -73 -52 -50 -29 -67 -49 -42 -49 6 0
44 18 83 41 48 27 81 55 100 82 16 23 52 60 80 82 28 22 104 93 169 159 65 65
120 116 122 114 2 -2 -23 -46 -55 -98 -33 -52 -60 -99 -60 -106 0 -33 -157
-148 -230 -169 -39 -11 -90 -65 -62 -65 12 0 186 115 273 181 90 69 135 119
178 198 73 138 8 221 -89 114z"/>
<path d="M5037 8358 c-49 -158 -68 -298 -39 -298 11 0 96 356 88 369 -15 23
-24 9 -49 -71z"/>
<path d="M3833 8084 c-21 -9 -47 -144 -39 -205 9 -65 68 -251 81 -256 6 -1 17
2 25 7 13 8 13 14 1 42 -15 36 -43 187 -38 203 2 5 12 -12 22 -38 19 -50 35
-62 35 -26 0 12 7 27 17 34 15 11 14 20 -12 114 -33 121 -49 142 -92 125z"/>
<path d="M7897 7982 c-93 -90 -155 -144 -244 -215 -40 -32 -75 -68 -78 -80 -4
-13 -18 -31 -33 -41 l-27 -17 45 7 c48 7 145 47 250 104 115 62 213 180 150
180 -25 0 -25 2 5 46 26 39 32 69 15 79 -6 4 -43 -25 -83 -63z m33 -111 c0
-25 -52 -68 -119 -98 -77 -34 -84 -23 -17 28 32 24 70 54 85 66 32 28 51 29
51 4z"/>
<path d="M7807 6987 c-2 -7 3 -73 13 -147 10 -74 23 -200 30 -280 6 -80 23
-228 36 -330 13 -102 31 -273 40 -380 16 -203 24 -252 48 -285 14 -19 15 -19
25 8 15 38 14 81 -5 320 -15 192 -39 336 -79 467 -11 37 -20 117 -25 240 -7
164 -35 357 -56 391 -8 13 -21 11 -27 -4z"/>
<path d="M7395 6650 c3 -5 11 -10 16 -10 6 0 7 5 4 10 -3 6 -11 10 -16 10 -6
0 -7 -4 -4 -10z"/>
<path d="M6945 5514 c-11 -12 -15 -31 -13 -68 3 -43 6 -51 24 -54 39 -6 72 96
42 126 -16 16 -34 15 -53 -4z"/>
<path d="M6617 5373 c-4 -3 -7 -27 -7 -53 0 -40 5 -52 35 -83 46 -48 71 -48
84 -1 8 29 6 41 -11 72 -12 20 -28 45 -36 55 -15 17 -53 23 -65 10z"/>
<path d="M6291 5287 c-22 -27 9 -92 67 -142 30 -25 61 -45 71 -45 21 0 41 19
41 38 0 20 -67 122 -94 144 -25 21 -69 23 -85 5z m63 -36 c3 -5 -1 -11 -9 -15
-9 -3 -15 0 -15 9 0 16 16 20 24 6z"/>
<path d="M5965 5133 c-19 -20 -35 -46 -35 -57 0 -28 27 -66 46 -66 8 0 32 -11
52 -25 20 -14 48 -25 63 -25 30 0 59 28 59 56 0 26 -110 154 -132 154 -9 0
-33 -16 -53 -37z"/>
<path d="M5592 5038 c-16 -16 -15 -93 2 -126 24 -45 81 -93 122 -103 55 -12
94 4 94 41 0 32 -67 137 -111 175 -33 27 -86 34 -107 13z"/>
<path d="M6906 4941 c-21 -23 -26 -95 -9 -112 9 -9 19 -9 42 0 46 20 63 44 59
88 -3 36 -5 38 -39 41 -25 2 -40 -3 -53 -17z"/>
<path d="M6603 4858 c-25 -12 -24 -36 4 -91 27 -54 113 -86 121 -44 4 17 -18
50 -73 112 -26 29 -33 32 -52 23z m22 -38 c3 -5 1 -10 -4 -10 -6 0 -11 5 -11
10 0 6 2 10 4 10 3 0 8 -4 11 -10z"/>
<path d="M6313 4740 c-31 -13 -29 -41 10 -120 21 -43 39 -66 52 -68 11 -2 27
-12 35 -23 18 -23 60 -15 60 11 0 35 -30 100 -70 155 -42 57 -49 60 -87 45z
m67 -51 c0 -6 -4 -7 -10 -4 -5 3 -10 11 -10 16 0 6 5 7 10 4 6 -3 10 -11 10
-16z"/>
<path d="M5962 4634 c-27 -19 -28 -46 -2 -103 19 -41 114 -178 133 -192 5 -3
23 -3 40 0 27 6 33 12 35 38 3 32 -8 58 -73 163 -69 113 -87 126 -133 94z"/>
<path d="M4447 5165 c-5 -33 -2 -44 24 -77 38 -47 69 -51 69 -9 0 20 -13 44
-43 77 l-44 48 -6 -39z"/>
<path d="M4600 5120 c-11 -11 -20 -28 -20 -38 0 -34 31 -110 55 -136 27 -30
79 -35 111 -12 19 14 19 15 -5 86 -13 39 -35 82 -47 95 -28 30 -67 32 -94 5z"/>
<path d="M4815 4980 c-9 -14 26 -118 44 -134 9 -8 36 -17 60 -21 l43 -7 -7 43
c-10 70 -25 108 -45 119 -24 13 -87 13 -95 0z"/>
<path d="M5020 4945 c-7 -9 -10 -26 -6 -42 4 -16 11 -46 15 -67 5 -22 15 -45
23 -50 18 -15 52 -66 58 -90 9 -31 37 -44 56 -25 41 42 -61 289 -119 289 -8 0
-20 -7 -27 -15z"/>
<path d="M4706 4794 c-32 -31 -11 -95 36 -115 45 -18 63 -2 62 54 0 25 -6 52
-13 61 -17 20 -65 21 -85 0z"/>
<path d="M4908 4728 c-23 -8 -28 -16 -28 -41 0 -56 10 -74 51 -92 37 -17 40
-17 59 0 11 10 22 26 25 36 9 28 -21 88 -50 99 -15 6 -27 10 -28 9 -1 0 -14
-5 -29 -11z"/>
<path d="M5053 4628 c-35 -45 -23 -74 47 -117 59 -37 67 -38 75 -11 23 72 -81
181 -122 128z"/>
<path d="M5209 4608 c-1 -2 -3 -23 -4 -47 -5 -63 33 -117 103 -148 63 -28 59
-28 72 -3 18 33 -5 84 -57 127 -25 21 -55 46 -66 56 -17 14 -44 23 -48 15z"/>
<path d="M8353 5168 c-13 -6 -28 -25 -34 -43 -12 -32 -13 -32 -93 -38 -92 -6
-206 -44 -246 -82 -26 -25 -65 -85 -55 -85 3 0 38 16 79 36 84 40 183 60 250
50 39 -6 46 -11 46 -29 0 -24 -48 -401 -54 -430 -11 -45 57 -76 167 -77 61 0
102 34 92 78 -3 15 1 57 9 92 18 84 39 258 35 289 -6 38 -24 35 -42 -6 -22
-49 -34 -115 -43 -238 -4 -55 -8 -107 -9 -115 -2 -12 -15 -14 -61 -12 -32 1
-60 4 -62 6 -2 3 2 78 8 168 7 90 15 208 19 263 l6 100 40 3 c54 5 123 -16
130 -39 8 -23 42 -34 60 -19 19 16 19 84 1 100 -40 33 -196 51 -243 28z"/>
<path d="M8057 4896 c-73 -26 -163 -88 -173 -119 -13 -40 13 -41 89 -4 40 20
103 43 138 52 35 9 81 21 102 26 27 7 37 15 37 29 0 45 -88 53 -193 16z"/>
<path d="M7945 4732 c-43 -31 -115 -107 -115 -121 0 -16 29 -33 42 -25 7 4 38
27 68 50 31 23 73 49 94 58 30 12 37 20 34 38 -2 19 -10 24 -43 26 -32 2 -49
-3 -80 -26z"/>
<path d="M8003 4610 c-104 -25 -234 -163 -183 -195 6 -4 38 13 73 38 34 24 88
58 120 76 66 37 79 57 52 77 -10 8 -21 14 -24 13 -3 -1 -20 -4 -38 -9z"/>
<path d="M8567 4452 c-13 -19 9 -65 46 -98 47 -43 98 -108 123 -156 9 -18 22
-40 28 -48 7 -8 18 -33 24 -55 6 -22 18 -49 26 -60 14 -20 15 -19 24 6 6 16 7
42 1 70 -5 24 -14 70 -20 101 -8 47 -20 69 -61 117 -84 100 -171 156 -191 123z"/>
<path d="M3422 3781 c-52 -19 -59 -35 -17 -39 33 -3 100 33 90 48 -8 13 -21
11 -73 -9z"/>
<path d="M7131 3744 c0 -11 3 -14 6 -6 3 7 2 16 -1 19 -3 4 -6 -2 -5 -13z"/>
<path d="M6266 3308 c-29 -41 -20 -77 30 -125 26 -24 57 -43 69 -43 23 0 47
22 58 53 9 24 -30 115 -54 127 -33 18 -87 12 -103 -12z"/>
<path d="M7230 2816 c0 -2 34 -23 75 -46 99 -54 106 -70 66 -142 -30 -53 -41
-108 -21 -108 14 0 90 99 107 138 12 29 12 37 -3 68 -9 20 -27 42 -40 50 -30
20 -184 53 -184 40z"/>
<path d="M6616 2395 c-11 -8 -16 -20 -12 -30 6 -16 16 -15 64 2 6 3 12 -2 12
-12 0 -13 6 -15 29 -10 20 4 38 1 54 -9 28 -19 37 -13 37 25 0 33 -25 44 -76
34 -21 -3 -34 -2 -34 5 0 15 -52 12 -74 -5z"/>
<path d="M6875 2314 c-40 -21 -65 -44 -65 -61 0 -25 29 -25 57 1 35 32 47 32
84 1 55 -46 81 -5 30 46 -33 33 -62 36 -106 13z"/>
<path d="M5126 2315 c-9 -26 -7 -32 5 -12 6 10 9 21 6 23 -2 3 -7 -2 -11 -11z"/>
<path d="M4904 1455 c-4 -9 -4 -43 -2 -78 3 -47 10 -72 31 -102 37 -54 158
-176 169 -169 16 10 8 38 -31 103 -21 36 -46 89 -55 117 -9 29 -26 60 -37 70
-12 11 -27 31 -35 46 -16 31 -32 36 -40 13z"/>
<path d="M5155 1423 c-20 -20 -15 -54 21 -144 41 -102 62 -131 93 -127 25 3
26 5 23 62 -2 60 -52 203 -75 218 -20 13 -45 9 -62 -9z"/>
<path d="M6080 1385 c-6 -16 -16 -25 -27 -23 -28 5 -43 -40 -43 -127 0 -94 15
-157 58 -242 34 -67 63 -94 92 -86 25 7 31 25 19 65 -11 40 -35 212 -45 323
-9 110 -32 148 -54 90z"/>
<path d="M6398 1388 c-2 -7 -6 -49 -7 -94 -3 -81 9 -126 45 -182 14 -21 16
-21 44 -7 25 13 30 22 30 53 0 91 -94 283 -112 230z"/>
<path d="M3300 4985 c-14 -8 -20 -14 -14 -15 5 0 19 7 30 15 24 18 16 19 -16
0z"/>
<path d="M1140 3747 c0 -3 15 -10 32 -16 18 -6 28 -7 23 -2 -12 10 -55 25 -55
18z"/>
<path d="M3985 3700 c3 -5 8 -10 11 -10 2 0 4 5 4 10 0 6 -5 10 -11 10 -5 0
-7 -4 -4 -10z"/>
<path d="M1365 3570 c-19 -31 39 -80 301 -256 264 -177 269 -181 269 -215 0
-31 -5 -36 -65 -69 -76 -41 -129 -91 -154 -145 -32 -67 -10 -200 50 -302 37
-64 273 -248 292 -228 4 4 -4 14 -18 23 -51 33 -218 204 -238 245 -26 52 -48
172 -39 210 11 43 60 90 137 132 80 44 110 78 117 135 7 52 -30 116 -100 172
-78 61 -353 241 -424 277 -63 31 -116 40 -128 21z"/>
<path d="M3967 3263 c-4 -3 -7 -11 -7 -17 0 -6 5 -5 12 2 6 6 9 14 7 17 -3 3
-9 2 -12 -2z"/>
<path d="M3550 2891 c-7 -15 -7 -21 0 -21 12 0 25 28 17 36 -3 3 -10 -4 -17
-15z"/>
<path d="M3170 2335 c-30 -9 -77 -26 -105 -39 -48 -22 -160 -106 -197 -148
-14 -15 -25 -18 -50 -13 -18 4 -38 12 -45 17 -8 6 -36 4 -82 -6 -39 -9 -88
-16 -111 -16 -53 0 -98 -20 -135 -60 -16 -18 -55 -48 -85 -67 -30 -20 -105
-86 -166 -147 -105 -105 -113 -115 -135 -183 -19 -60 -27 -73 -44 -73 -12 0
-44 -23 -75 -55 -39 -39 -57 -52 -66 -44 -32 27 -72 27 -126 2 -66 -31 -110
-27 -173 16 -38 25 -56 31 -101 31 -51 0 -56 -2 -74 -32 -20 -34 -27 -88 -11
-88 5 0 22 -33 38 -72 26 -68 122 -222 207 -334 66 -86 125 -142 185 -175 45
-25 57 -36 53 -51 -8 -33 27 -107 66 -136 34 -26 40 -27 153 -27 l117 0 6 -36
c12 -75 119 -127 276 -136 76 -5 102 -2 127 10 27 15 63 68 63 96 0 19 18 12
72 -29 29 -22 68 -43 87 -46 71 -14 224 41 257 91 13 21 16 40 10 95 -3 38
-11 81 -16 97 -9 22 -1 17 38 -26 53 -60 96 -78 208 -88 74 -6 126 14 156 61
16 26 19 43 14 101 -2 39 -12 90 -21 114 -14 42 -14 46 1 54 9 5 33 24 53 42
29 25 41 30 61 24 14 -4 58 -7 98 -8 84 -1 114 11 161 64 30 34 31 40 31 121
0 53 -6 98 -15 121 -20 48 -62 103 -86 111 -18 7 -17 10 10 68 53 112 65 241
37 399 -31 175 -88 265 -206 325 -149 75 -344 107 -460 75z m106 -95 c8 0 14
-10 14 -23 0 -26 26 -53 80 -86 51 -31 87 -28 108 9 9 16 21 30 25 30 4 0 30
-11 57 -25 33 -17 48 -30 44 -39 -3 -9 11 -31 33 -53 59 -58 73 -87 94 -187
20 -95 23 -194 13 -333 l-7 -81 -61 -22 c-34 -11 -72 -23 -86 -26 -14 -3 -35
-7 -47 -10 -26 -5 -31 -29 -7 -38 37 -14 99 -5 161 25 75 36 84 32 107 -39 24
-72 24 -157 0 -183 -29 -32 -54 -38 -171 -40 l-108 -2 -47 -45 -46 -44 -17 31
c-21 41 -51 71 -70 71 -19 0 -19 -24 -1 -39 8 -7 21 -32 29 -56 15 -42 14 -43
-6 -49 -11 -3 -39 -3 -62 1 -37 5 -44 2 -68 -27 -75 -89 31 -192 116 -112 l30
27 -6 -42 c-5 -39 -4 -41 14 -30 11 7 22 20 25 30 8 26 24 10 24 -23 0 -41
-25 -51 -130 -49 l-90 2 -46 68 c-65 99 -104 124 -159 103 -13 -5 -15 -15 -9
-50 l6 -44 -44 6 c-33 5 -47 2 -57 -10 -21 -25 2 -44 60 -52 43 -6 49 -9 49
-30 0 -25 -28 -48 -72 -59 -24 -6 -30 -2 -49 29 -13 23 -28 36 -38 34 -30 -7
-3 -73 43 -103 22 -14 28 -14 80 6 32 11 60 18 63 15 3 -3 3 -16 -1 -29 -7
-31 -47 -48 -126 -54 -63 -5 -67 -4 -117 33 -61 45 -73 68 -73 132 0 60 -9 94
-24 89 -18 -6 -59 -87 -67 -132 -7 -37 -43 -132 -63 -164 -7 -11 -27 -12 -90
-7 -113 8 -187 33 -204 69 -15 31 -20 163 -9 220 7 33 6 37 -11 37 -24 0 -38
-16 -47 -53 -6 -21 -12 -26 -24 -22 -9 4 -41 11 -71 17 -30 6 -113 37 -185 70
-129 60 -130 60 -234 170 -110 116 -170 197 -222 301 -17 34 -40 71 -50 82
-17 19 -17 23 -3 43 21 31 54 28 131 -13 82 -44 133 -46 203 -9 49 25 93 26
88 1 -1 -7 5 -23 14 -37 9 -14 20 -37 23 -52 9 -35 -13 -38 -55 -6 -41 30 -60
13 -34 -31 33 -55 108 -65 134 -17 12 23 2 82 -19 115 -7 11 1 22 29 43 22 15
47 39 56 53 12 18 19 22 24 14 10 -15 -31 -99 -45 -95 -40 13 22 -131 65 -154
46 -25 68 1 30 35 -31 28 -61 83 -48 91 5 4 39 9 74 12 l64 5 15 -36 c8 -20
15 -47 15 -60 0 -13 4 -27 10 -33 6 -6 5 -25 -2 -52 -9 -37 -8 -45 8 -63 20
-23 94 -59 119 -59 33 0 12 44 -33 68 -33 19 -42 29 -40 46 2 15 10 21 31 22
30 1 53 24 36 35 -10 6 35 37 73 52 10 3 32 -2 50 -12 18 -10 61 -24 95 -31
71 -14 97 -37 106 -95 7 -44 20 -61 37 -50 9 5 11 29 8 76 -4 56 -2 68 11 73
9 3 35 12 57 20 l42 13 4 -54 c6 -70 29 -94 97 -101 55 -5 101 15 101 45 0 13
-8 15 -53 9 -69 -8 -87 6 -104 75 -19 83 -14 123 23 187 1 2 16 -4 33 -13 21
-11 64 -17 132 -19 85 -3 102 -1 106 13 2 9 8 23 13 32 5 9 12 33 15 52 10 50
28 63 45 32 21 -39 60 -44 60 -7 0 9 -9 31 -20 47 -14 21 -18 39 -14 60 6 27
5 28 -10 16 -15 -12 -16 -7 -16 63 l0 76 38 -20 c20 -11 49 -30 64 -41 49 -40
79 2 38 53 l-20 26 32 6 c45 9 58 24 58 64 0 65 -59 138 -178 221 -47 33 -122
31 -168 -4 -19 -14 -34 -23 -34 -19 0 4 -13 -5 -30 -21 -26 -25 -33 -27 -62
-18 l-33 10 29 12 c16 6 42 23 59 37 16 13 43 32 60 41 34 17 164 44 185 37 8
-2 20 -4 28 -4z m142 -36 c16 -10 21 -19 14 -26 -12 -12 -71 12 -92 37 -14 17
-13 18 19 12 19 -4 46 -14 59 -23z m-181 -113 c57 -46 108 -99 116 -122 4 -13
-4 -18 -41 -22 -28 -3 -51 -12 -59 -23 -12 -16 -19 -11 -84 58 -45 50 -81 79
-100 83 -34 8 -49 25 -21 25 10 0 27 9 37 20 13 14 31 20 61 20 34 0 51 -7 91
-39z m-327 -27 c58 -14 115 -27 126 -29 12 -3 47 -34 79 -70 43 -50 55 -69 46
-78 -7 -7 -11 -50 -11 -112 l0 -101 -30 -17 c-17 -10 -57 -43 -89 -72 l-58
-54 -51 21 c-47 20 -52 20 -75 5 -13 -8 -34 -37 -46 -64 -12 -26 -25 -55 -30
-63 -11 -21 -152 -91 -165 -82 -6 4 -45 16 -86 27 -74 20 -75 21 -73 51 2 18
19 73 38 125 36 92 38 119 12 119 -21 0 -97 -175 -97 -224 -1 -19 -45 -45
-140 -84 -4 -1 -10 11 -14 29 -3 17 -21 46 -40 65 -28 28 -42 34 -75 34 -23 0
-41 2 -41 4 0 8 123 191 132 197 5 3 26 0 46 -6 20 -7 63 -16 94 -20 49 -6 59
-5 64 10 10 26 -17 45 -102 69 -77 22 -79 23 -76 52 4 36 20 53 158 170 l111
94 100 0 c97 0 100 -1 111 -25 7 -14 12 -33 12 -41 0 -9 7 -31 16 -50 l16 -34
-92 -92 c-128 -129 -106 -128 80 3 l80 57 77 -44 c74 -42 129 -62 140 -50 12
12 -30 45 -118 91 l-89 48 -40 85 c-22 47 -40 87 -40 89 0 3 8 2 18 -2 9 -3
64 -18 122 -31z m-771 -364 c-42 -59 -62 -74 -39 -28 12 21 70 88 77 88 2 0
-15 -27 -38 -60z m956 -150 c-10 -11 -23 -20 -29 -20 -6 1 0 10 13 20 30 26
39 26 16 0z m215 -645 c0 -32 -20 -42 -36 -20 -9 12 -10 23 -3 36 13 24 39 13
39 -16z m-1277 -171 l52 -25 -49 5 c-36 3 -55 11 -75 31 -26 27 -26 27 -3 20
13 -4 47 -18 75 -31z"/>
<path d="M3502 1927 c-40 -42 -50 -86 -27 -121 55 -83 175 -65 175 26 0 47
-13 75 -49 105 -36 31 -62 28 -99 -10z m82 -72 c19 -50 -19 -89 -62 -66 -29
15 -39 67 -17 91 16 17 20 18 45 5 15 -8 30 -22 34 -30z"/>
<path d="M3580 1663 c-28 -32 -32 -41 -27 -80 2 -23 10 -50 17 -58 19 -23 65
-18 99 11 27 22 31 33 31 73 0 94 -61 122 -120 54z m60 -47 c0 -19 -5 -24 -20
-23 -22 1 -26 17 -8 35 19 19 28 14 28 -12z"/>
<path d="M3233 1491 c-46 -29 -53 -72 -21 -153 17 -45 28 -32 28 32 0 71 11
80 94 80 66 0 67 -5 26 -77 -30 -52 -60 -83 -46 -48 6 18 -17 55 -36 55 -16 0
-8 -47 12 -65 11 -10 20 -24 20 -30 0 -33 53 -18 88 25 47 58 69 152 42 185
-20 24 -166 21 -207 -4z"/>
<path d="M1590 1411 c-28 -54 5 -111 63 -111 60 0 90 63 45 94 -26 19 -49 5
-41 -24 3 -11 0 -20 -6 -20 -18 0 -25 28 -11 44 9 12 7 17 -9 25 -26 15 -29
14 -41 -8z"/>
<path d="M3687 1363 c-4 -3 -7 -26 -7 -50 0 -49 -15 -58 -23 -13 -5 21 -12 30
-26 30 -16 0 -21 -9 -27 -46 -8 -53 3 -68 53 -79 48 -10 83 28 83 89 0 53 -30
93 -53 69z"/>
<path d="M1915 1136 c-36 -37 -48 -131 -16 -131 8 0 20 20 28 48 17 58 36 61
123 17 95 -48 94 -106 -3 -117 -40 -5 -47 -3 -62 21 -10 14 -26 26 -36 26 -31
0 -24 -47 12 -82 28 -29 33 -30 85 -24 72 8 108 28 124 65 27 66 -8 122 -105
167 -87 40 -118 42 -150 10z"/>
<path d="M2495 1096 c-21 -31 -23 -99 -5 -121 12 -14 26 -17 82 -13 47 4 68 2
67 -6 -3 -23 1 -36 11 -36 6 0 8 21 4 58 -6 52 -10 61 -53 99 -53 48 -84 54
-106 19z m73 -47 c19 -17 32 -32 30 -35 -3 -2 -19 -7 -36 -10 -28 -6 -33 -3
-42 20 -9 25 -5 56 9 56 3 0 21 -14 39 -31z"/>
<path d="M3220 804 c0 -10 38 -21 49 -15 9 6 3 10 -18 13 -17 2 -31 3 -31 2z"/>
<path d="M2305 745 c-25 -24 -33 -69 -15 -80 5 -3 16 8 25 25 8 16 19 30 23
30 5 0 18 -18 31 -40 21 -38 21 -40 5 -65 -12 -18 -14 -29 -6 -37 15 -15 48
-1 67 28 15 24 14 27 -16 85 -20 37 -42 65 -57 70 -31 12 -29 12 -57 -16z"/>
<path d="M2266 485 c-23 -18 -20 -23 22 -31 28 -6 32 -4 32 14 0 11 -7 23 -16
26 -19 7 -15 8 -38 -9z"/>
</g>
</svg>
